<svg width="50" height="50" viewBox="0 0 50 50" fill="none" xmlns="http://www.w3.org/2000/svg">
<g filter="url(#filter0_b_14_17)">
<circle cx="25" cy="25" r="25" fill="white" fill-opacity="0.15"/>
<circle cx="25" cy="25" r="24.5" stroke="white"/>
</g>
<path d="M25.0013 21.5C24.0731 21.5 23.1828 21.8688 22.5265 22.5251C21.8701 23.1815 21.5013 24.0718 21.5013 25C21.5013 25.9283 21.8701 26.8185 22.5265 27.4749C23.1828 28.1313 24.0731 28.5 25.0013 28.5C25.9296 28.5 26.8198 28.1313 27.4762 27.4749C28.1326 26.8185 28.5013 25.9283 28.5013 25C28.5013 24.0718 28.1326 23.1815 27.4762 22.5251C26.8198 21.8688 25.9296 21.5 25.0013 21.5ZM25.0013 19.1667C26.5484 19.1667 28.0322 19.7813 29.1261 20.8752C30.2201 21.9692 30.8347 23.4529 30.8347 25C30.8347 26.5471 30.2201 28.0308 29.1261 29.1248C28.0322 30.2188 26.5484 30.8333 25.0013 30.8333C23.4542 30.8333 21.9705 30.2188 20.8765 29.1248C19.7826 28.0308 19.168 26.5471 19.168 25C19.168 23.4529 19.7826 21.9692 20.8765 20.8752C21.9705 19.7813 23.4542 19.1667 25.0013 19.1667ZM32.5847 18.875C32.5847 19.2618 32.431 19.6327 32.1575 19.9062C31.884 20.1797 31.5131 20.3333 31.1263 20.3333C30.7396 20.3333 30.3686 20.1797 30.0951 19.9062C29.8216 19.6327 29.668 19.2618 29.668 18.875C29.668 18.4882 29.8216 18.1173 30.0951 17.8438C30.3686 17.5703 30.7396 17.4167 31.1263 17.4167C31.5131 17.4167 31.884 17.5703 32.1575 17.8438C32.431 18.1173 32.5847 18.4882 32.5847 18.875ZM25.0013 15.6667C22.115 15.6667 21.6437 15.6748 20.3008 15.7343C19.3862 15.7775 18.7725 15.9 18.2032 16.1217C17.727 16.2971 17.2963 16.5774 16.9432 16.9418C16.5783 17.2949 16.2976 17.7255 16.1218 18.2018C15.9002 18.7735 15.7777 19.386 15.7357 20.2995C15.675 21.5875 15.6668 22.0378 15.6668 25C15.6668 27.8875 15.675 28.3577 15.7345 29.7005C15.7777 30.614 15.9002 31.2288 16.1207 31.797C16.319 32.3045 16.5523 32.6697 16.9397 33.057C17.3328 33.449 17.698 33.6835 18.1997 33.8772C18.776 34.1 19.3897 34.2237 20.2997 34.2657C21.5877 34.3263 22.038 34.3333 25.0002 34.3333C27.8877 34.3333 28.3578 34.3252 29.7007 34.2657C30.613 34.2225 31.2267 34.1 31.7972 33.8795C32.2734 33.7041 32.704 33.4238 33.0572 33.0593C33.4503 32.6673 33.6848 32.3022 33.8785 31.7993C34.1002 31.2253 34.2238 30.6117 34.2658 29.6993C34.3265 28.4125 34.3335 27.961 34.3335 25C34.3335 22.1137 34.3253 21.6423 34.2658 20.2995C34.2227 19.3872 34.099 18.7712 33.8785 18.2018C33.7031 17.7256 33.4228 17.295 33.0583 16.9418C32.7053 16.577 32.2746 16.2963 31.7983 16.1205C31.2267 15.8988 30.613 15.7763 29.7007 15.7343C28.4138 15.6737 27.9635 15.6667 25.0002 15.6667M25.0002 13.3333C28.17 13.3333 28.5655 13.345 29.8103 13.4033C31.0517 13.4617 31.8987 13.6565 32.6418 13.9458C33.4118 14.2422 34.0605 14.6435 34.7092 15.291C35.3026 15.874 35.7617 16.5796 36.0543 17.3583C36.3425 18.1015 36.5385 18.9485 36.5968 20.191C36.6517 21.4347 36.6668 21.8302 36.6668 25C36.6668 28.1698 36.6552 28.5653 36.5968 29.809C36.5385 31.0527 36.3425 31.8973 36.0543 32.6417C35.7617 33.4205 35.3026 34.126 34.7092 34.709C34.1261 35.3025 33.4206 35.7616 32.6418 36.0542C31.8987 36.3423 31.0517 36.5383 29.8103 36.5967C28.5655 36.6515 28.17 36.6667 25.0002 36.6667C21.8303 36.6667 21.4348 36.655 20.19 36.5967C18.9487 36.5383 18.1028 36.3423 17.3585 36.0542C16.5797 35.7616 15.8742 35.3025 15.2912 34.709C14.6977 34.126 14.2386 33.4205 13.946 32.6417C13.6567 31.8985 13.4618 31.0515 13.4035 29.809C13.3475 28.5653 13.3335 28.1698 13.3335 25C13.3335 21.8302 13.3452 21.4347 13.4035 20.191C13.4618 18.9473 13.6567 18.1027 13.946 17.3583C14.2386 16.5796 14.6977 15.874 15.2912 15.291C15.8742 14.6975 16.5797 14.2385 17.3585 13.9458C18.1017 13.6565 18.9475 13.4617 20.19 13.4033C21.436 13.3485 21.8315 13.3333 25.0013 13.3333" fill="white"/>
<defs>
<filter id="filter0_b_14_17" x="-15" y="-15" width="80" height="80" filterUnits="userSpaceOnUse" color-interpolation-filters="sRGB">
<feFlood flood-opacity="0" result="BackgroundImageFix"/>
<feGaussianBlur in="BackgroundImageFix" stdDeviation="7.5"/>
<feComposite in2="SourceAlpha" operator="in" result="effect1_backgroundBlur_14_17"/>
<feBlend mode="normal" in="SourceGraphic" in2="effect1_backgroundBlur_14_17" result="shape"/>
</filter>
</defs>
</svg>
