<svg width="28" height="28" viewBox="0 0 28 28" fill="none" xmlns="http://www.w3.org/2000/svg">
<circle cx="13.9998" cy="14" r="9.33333" fill="white"/>
<path d="M14.0002 2.33334C7.56016 2.33334 2.3335 7.56 2.3335 14C2.3335 20.44 7.56016 25.6667 14.0002 25.6667C20.4402 25.6667 25.6668 20.44 25.6668 14C25.6668 7.56 20.4402 2.33334 14.0002 2.33334ZM19.4135 10.2667C19.2385 12.11 18.4802 16.59 18.0952 18.655C17.9318 19.53 17.6052 19.8217 17.3018 19.8567C16.6252 19.915 16.1118 19.4133 15.4585 18.9817C14.4318 18.305 13.8485 17.885 12.8568 17.2317C11.7018 16.4733 12.4485 16.0533 13.1135 15.3767C13.2885 15.2017 16.2752 12.4833 16.3335 12.2383C16.3416 12.2012 16.3405 12.1627 16.3304 12.1261C16.3202 12.0895 16.3012 12.0559 16.2752 12.0283C16.2052 11.97 16.1118 11.9933 16.0302 12.005C15.9252 12.0283 14.2918 13.1133 11.1068 15.26C10.6402 15.575 10.2202 15.7383 9.84683 15.7267C9.42683 15.715 8.6335 15.4933 8.0385 15.295C7.3035 15.0617 6.73183 14.9333 6.7785 14.525C6.80183 14.315 7.0935 14.105 7.64183 13.8833C11.0485 12.4017 13.3118 11.4217 14.4435 10.955C17.6868 9.60167 18.3518 9.36834 18.7952 9.36834C18.8885 9.36834 19.1102 9.39167 19.2502 9.50834C19.3668 9.60167 19.4018 9.73 19.4135 9.82334C19.4018 9.89334 19.4252 10.1033 19.4135 10.2667Z" fill="#24A1DE"/>
</svg>
