<svg width="40" height="36" viewBox="0 0 40 36" fill="none" xmlns="http://www.w3.org/2000/svg">
<g filter="url(#filter0_d_19_9)">
<path d="M20.244 10C20.778 10.003 22.114 10.016 23.534 10.073L24.038 10.095C25.467 10.162 26.895 10.278 27.604 10.475C28.549 10.741 29.291 11.515 29.542 12.497C29.942 14.057 29.992 17.099 29.998 17.836L29.999 17.988V18.162C29.992 18.899 29.942 21.942 29.542 23.501C29.288 24.486 28.545 25.261 27.604 25.523C26.895 25.72 25.467 25.836 24.038 25.903L23.534 25.926C22.114 25.982 20.778 25.996 20.244 25.998L20.009 25.999H19.754C18.624 25.992 13.898 25.941 12.394 25.523C11.45 25.257 10.707 24.483 10.456 23.501C10.056 21.941 10.006 18.899 10 18.162V17.836C10.006 17.099 10.056 14.056 10.456 12.497C10.71 11.512 11.453 10.737 12.395 10.476C13.898 10.057 18.625 10.006 19.755 10H20.244ZM17.999 14.5V21.5L23.999 18L17.999 14.5Z" fill="white"/>
</g>
<defs>
<filter id="filter0_d_19_9" x="-2" y="-4" width="44" height="44" filterUnits="userSpaceOnUse" color-interpolation-filters="sRGB">
<feFlood flood-opacity="0" result="BackgroundImageFix"/>
<feColorMatrix in="SourceAlpha" type="matrix" values="0 0 0 0 0 0 0 0 0 0 0 0 0 0 0 0 0 0 127 0" result="hardAlpha"/>
<feOffset/>
<feGaussianBlur stdDeviation="5"/>
<feComposite in2="hardAlpha" operator="out"/>
<feColorMatrix type="matrix" values="0 0 0 0 0 0 0 0 0 0 0 0 0 0 0 0 0 0 0.4 0"/>
<feBlend mode="normal" in2="BackgroundImageFix" result="effect1_dropShadow_19_9"/>
<feBlend mode="normal" in="SourceGraphic" in2="effect1_dropShadow_19_9" result="shape"/>
</filter>
</defs>
</svg>
